<svg xmlns="http://www.w3.org/2000/svg" xmlns:xlink="http://www.w3.org/1999/xlink" width="500" zoomAndPan="magnify" viewBox="0 0 375 374.999991" height="500" preserveAspectRatio="xMidYMid meet" version="1.0"><defs><g/><clipPath id="bc43ee1b9d"><path d="M 101 0.761719 L 201 0.761719 L 201 186.648438 L 101 186.648438 Z M 101 0.761719 " clip-rule="nonzero"/></clipPath><clipPath id="1cf0b10060"><path d="M 200 101 L 262.6875 101 L 262.6875 186.648438 L 200 186.648438 Z M 200 101 " clip-rule="nonzero"/></clipPath><clipPath id="4c885035e7"><path d="M 48.964844 101 L 112 101 L 112 186.648438 L 48.964844 186.648438 Z M 48.964844 101 " clip-rule="nonzero"/></clipPath><clipPath id="c3562e3a84"><path d="M 0.0390625 191 L 308.921875 191 L 308.921875 261.398438 L 0.0390625 261.398438 Z M 0.0390625 191 " clip-rule="nonzero"/></clipPath><clipPath id="b62b56d5fd"><rect x="0" width="309" y="0" height="71"/></clipPath><clipPath id="434e977819"><rect x="0" width="309" y="0" height="262"/></clipPath></defs><g transform="matrix(1, 0, 0, 1, 35, 59)"><g clip-path="url(#434e977819)"><g clip-path="url(#bc43ee1b9d)"><path fill="#38b6ff" d="M 155.824219 46.820312 L 137.761719 78.191406 L 200.074219 186.339844 L 114.253906 186.339844 L 101.019531 163.394531 L 160.347656 163.394531 L 111.273438 78.191406 L 155.824219 0.839844 L 200.710938 78.660156 L 187.4375 101.574219 Z M 155.824219 46.820312 " fill-opacity="1" fill-rule="nonzero"/></g><g clip-path="url(#1cf0b10060)"><path fill="#101010" d="M 262.679688 186.339844 L 236.191406 186.339844 L 200.730469 124.800781 L 213.96875 101.765625 Z M 262.679688 186.339844 " fill-opacity="1" fill-rule="nonzero"/></g><g clip-path="url(#4c885035e7)"><path fill="#101010" d="M 111.046875 124.765625 L 75.453125 186.339844 L 48.964844 186.339844 L 97.800781 101.742188 Z M 111.046875 124.765625 " fill-opacity="1" fill-rule="nonzero"/></g><g clip-path="url(#c3562e3a84)"><g transform="matrix(1, 0, 0, 1, 0, 191)"><g clip-path="url(#b62b56d5fd)"><g fill="#101010" fill-opacity="1"><g transform="translate(0.691695, 52.157623)"><g><path d="M 24.71875 -6.140625 L 11.75 -6.140625 L 9.65625 0 L 0.796875 0 L 13.375 -34.78125 L 23.1875 -34.78125 L 35.765625 0 L 26.8125 0 Z M 22.546875 -12.6875 L 18.234375 -25.421875 L 13.96875 -12.6875 Z M 22.546875 -12.6875 "/></g></g></g><g fill="#101010" fill-opacity="1"><g transform="translate(41.210505, 52.157623)"><g><path d="M 15.65625 0.34375 C 13.113281 0.34375 10.832031 -0.0664062 8.8125 -0.890625 C 6.800781 -1.710938 5.191406 -2.929688 3.984375 -4.546875 C 2.785156 -6.171875 2.148438 -8.125 2.078125 -10.40625 L 11.09375 -10.40625 C 11.226562 -9.113281 11.675781 -8.128906 12.4375 -7.453125 C 13.195312 -6.773438 14.1875 -6.4375 15.40625 -6.4375 C 16.664062 -6.4375 17.65625 -6.722656 18.375 -7.296875 C 19.101562 -7.878906 19.46875 -8.6875 19.46875 -9.71875 C 19.46875 -10.570312 19.175781 -11.28125 18.59375 -11.84375 C 18.019531 -12.40625 17.3125 -12.867188 16.46875 -13.234375 C 15.625 -13.597656 14.425781 -14.007812 12.875 -14.46875 C 10.632812 -15.164062 8.800781 -15.859375 7.375 -16.546875 C 5.957031 -17.242188 4.738281 -18.269531 3.71875 -19.625 C 2.695312 -20.976562 2.1875 -22.742188 2.1875 -24.921875 C 2.1875 -28.160156 3.359375 -30.695312 5.703125 -32.53125 C 8.046875 -34.363281 11.097656 -35.28125 14.859375 -35.28125 C 18.691406 -35.28125 21.78125 -34.363281 24.125 -32.53125 C 26.46875 -30.695312 27.722656 -28.144531 27.890625 -24.875 L 18.734375 -24.875 C 18.660156 -26 18.242188 -26.878906 17.484375 -27.515625 C 16.722656 -28.160156 15.75 -28.484375 14.5625 -28.484375 C 13.539062 -28.484375 12.710938 -28.210938 12.078125 -27.671875 C 11.453125 -27.128906 11.140625 -26.34375 11.140625 -25.3125 C 11.140625 -24.195312 11.664062 -23.320312 12.71875 -22.6875 C 13.78125 -22.0625 15.4375 -21.382812 17.6875 -20.65625 C 19.9375 -19.894531 21.757812 -19.164062 23.15625 -18.46875 C 24.5625 -17.78125 25.773438 -16.773438 26.796875 -15.453125 C 27.828125 -14.140625 28.34375 -12.441406 28.34375 -10.359375 C 28.34375 -8.367188 27.835938 -6.566406 26.828125 -4.953125 C 25.816406 -3.335938 24.351562 -2.050781 22.4375 -1.09375 C 20.53125 -0.132812 18.269531 0.34375 15.65625 0.34375 Z M 15.65625 0.34375 "/></g></g></g><g fill="#101010" fill-opacity="1"><g transform="translate(75.686426, 52.157623)"><g><path d="M 23.234375 0 L 11.546875 -15.359375 L 11.546875 0 L 3.078125 0 L 3.078125 -34.78125 L 11.546875 -34.78125 L 11.546875 -19.515625 L 23.140625 -34.78125 L 33.09375 -34.78125 L 19.625 -17.734375 L 33.59375 0 Z M 23.234375 0 "/></g></g></g><g fill="#101010" fill-opacity="1"><g transform="translate(114.223967, 52.157623)"><g><path d="M 15.65625 0.34375 C 13.113281 0.34375 10.832031 -0.0664062 8.8125 -0.890625 C 6.800781 -1.710938 5.191406 -2.929688 3.984375 -4.546875 C 2.785156 -6.171875 2.148438 -8.125 2.078125 -10.40625 L 11.09375 -10.40625 C 11.226562 -9.113281 11.675781 -8.128906 12.4375 -7.453125 C 13.195312 -6.773438 14.1875 -6.4375 15.40625 -6.4375 C 16.664062 -6.4375 17.65625 -6.722656 18.375 -7.296875 C 19.101562 -7.878906 19.46875 -8.6875 19.46875 -9.71875 C 19.46875 -10.570312 19.175781 -11.28125 18.59375 -11.84375 C 18.019531 -12.40625 17.3125 -12.867188 16.46875 -13.234375 C 15.625 -13.597656 14.425781 -14.007812 12.875 -14.46875 C 10.632812 -15.164062 8.800781 -15.859375 7.375 -16.546875 C 5.957031 -17.242188 4.738281 -18.269531 3.71875 -19.625 C 2.695312 -20.976562 2.1875 -22.742188 2.1875 -24.921875 C 2.1875 -28.160156 3.359375 -30.695312 5.703125 -32.53125 C 8.046875 -34.363281 11.097656 -35.28125 14.859375 -35.28125 C 18.691406 -35.28125 21.78125 -34.363281 24.125 -32.53125 C 26.46875 -30.695312 27.722656 -28.144531 27.890625 -24.875 L 18.734375 -24.875 C 18.660156 -26 18.242188 -26.878906 17.484375 -27.515625 C 16.722656 -28.160156 15.75 -28.484375 14.5625 -28.484375 C 13.539062 -28.484375 12.710938 -28.210938 12.078125 -27.671875 C 11.453125 -27.128906 11.140625 -26.34375 11.140625 -25.3125 C 11.140625 -24.195312 11.664062 -23.320312 12.71875 -22.6875 C 13.78125 -22.0625 15.4375 -21.382812 17.6875 -20.65625 C 19.9375 -19.894531 21.757812 -19.164062 23.15625 -18.46875 C 24.5625 -17.78125 25.773438 -16.773438 26.796875 -15.453125 C 27.828125 -14.140625 28.34375 -12.441406 28.34375 -10.359375 C 28.34375 -8.367188 27.835938 -6.566406 26.828125 -4.953125 C 25.816406 -3.335938 24.351562 -2.050781 22.4375 -1.09375 C 20.53125 -0.132812 18.269531 0.34375 15.65625 0.34375 Z M 15.65625 0.34375 "/></g></g></g><g fill="#101010" fill-opacity="1"><g transform="translate(148.699887, 52.157623)"><g><path d="M 42.46875 -34.78125 L 42.46875 0 L 33.984375 0 L 33.984375 -20.859375 L 26.203125 0 L 19.375 0 L 11.546875 -20.90625 L 11.546875 0 L 3.078125 0 L 3.078125 -34.78125 L 13.078125 -34.78125 L 22.84375 -10.703125 L 32.5 -34.78125 Z M 42.46875 -34.78125 "/></g></g></g><g fill="#101010" fill-opacity="1"><g transform="translate(198.183994, 52.157623)"><g><path d="M 24.71875 -6.140625 L 11.75 -6.140625 L 9.65625 0 L 0.796875 0 L 13.375 -34.78125 L 23.1875 -34.78125 L 35.765625 0 L 26.8125 0 Z M 22.546875 -12.6875 L 18.234375 -25.421875 L 13.96875 -12.6875 Z M 22.546875 -12.6875 "/></g></g></g><g fill="#101010" fill-opacity="1"><g transform="translate(238.702805, 52.157623)"><g><path d="M 20.8125 0 L 13.578125 -13.125 L 11.546875 -13.125 L 11.546875 0 L 3.078125 0 L 3.078125 -34.78125 L 17.296875 -34.78125 C 20.035156 -34.78125 22.367188 -34.300781 24.296875 -33.34375 C 26.234375 -32.382812 27.679688 -31.070312 28.640625 -29.40625 C 29.597656 -27.738281 30.078125 -25.878906 30.078125 -23.828125 C 30.078125 -21.515625 29.421875 -19.445312 28.109375 -17.625 C 26.804688 -15.8125 24.882812 -14.53125 22.34375 -13.78125 L 30.375 0 Z M 11.546875 -19.125 L 16.796875 -19.125 C 18.347656 -19.125 19.507812 -19.503906 20.28125 -20.265625 C 21.0625 -21.023438 21.453125 -22.097656 21.453125 -23.484375 C 21.453125 -24.804688 21.0625 -25.847656 20.28125 -26.609375 C 19.507812 -27.367188 18.347656 -27.75 16.796875 -27.75 L 11.546875 -27.75 Z M 11.546875 -19.125 "/></g></g></g><g fill="#101010" fill-opacity="1"><g transform="translate(275.011393, 52.157623)"><g><path d="M 28.09375 -34.78125 L 28.09375 -28 L 18.875 -28 L 18.875 0 L 10.40625 0 L 10.40625 -28 L 1.1875 -28 L 1.1875 -34.78125 Z M 28.09375 -34.78125 "/></g></g></g></g></g></g></g></g></svg>